<svg width="172.3mm" height="29.162mm" version="1.1" viewBox="0 0 172.3 29.162" xmlns="http://www.w3.org/2000/svg">
	<g transform="translate(-15.729 -35.368)">
		<g stroke="#000" stroke-width="3" aria-label="Favorites">
			<path d="m22.272 38.207h18.129l-2.4721 4.9442h-9.8883v4.9442h9.0643v3.7081h-9.0643v9.8883h-5.7682z"/>
			<path d="m51.529 54.275h-4.9442q-0.82403 0-0.82403 0.82402v0.82403q0 0.82403 0.82403 0.82403h4.9442zm5.7682 7.4162h-14.832q-2.4721 0-2.4721-2.4721v-6.1802q0-2.4721 2.4721-2.4721h9.0643v-0.82403q0-0.82402-0.82403-0.82402h-9.0643l2.4721-4.9442h10.712q2.4721 0 2.4721 2.4721z"/>
			<path d="m65.571 61.692-5.7682-17.717h5.7682l3.2961 10.119 3.2961-10.119h5.7682l-5.7682 17.717z"/>
			<path d="m86.171 55.924q0 0.82403 0.82402 0.82403h4.1201q0.82402 0 0.82402-0.82403v-6.1802q-0.01648-0.80754-0.82402-0.82402h-4.1201q-0.82402 0.01648-0.82402 0.82402zm11.536 3.2961q0 2.4721-2.4721 2.4721h-12.36q-2.4721 0-2.4721-2.4721v-12.772q0-2.4556 2.4721-2.4721h12.36q2.4721 0.01648 2.4721 2.4721z"/>
			<path d="m118.34 43.975-2.4721 4.9442h-8.2402q-0.82403 0-0.82403 0.82402v11.948h-5.7682v-15.244q0-2.4721 2.4721-2.4721z"/>
			<path d="m120.81 43.975h5.7682v17.717h-5.7682zm5.7682-1.6481h-5.7682v-4.1201h5.7682z"/>
			<path d="m139.8 61.692h-5.7682v-13.184h-4.1201v-4.5321h4.1201l-0.0165-3.7081h5.7847v3.7081h4.1201v4.5321h-4.1201z"/>
			<path d="m153.02 49.743v1.6481h4.9442q0.82403 0 0.82403-0.82402v-0.82403q0-0.82402-0.82403-0.82402h-4.1201q-0.82402 0.01648-0.82402 0.82402zm-5.7682-3.2961q0-2.4721 2.4721-2.4721h12.36q2.4721 0 2.4721 2.8841v6.1802q0 2.0601-2.4721 2.0601h-9.0643v0.82403q0 0.82403 0.82402 0.82403h9.0643l-2.4721 4.9442h-10.712q-2.4721 0-2.4721-2.4721z"/>
			<path d="m167.88 46.447q0-2.4721 2.4721-2.4721h14.832l-2.4721 4.9442h-8.2403q-0.82402 0-0.82402 0.82402v0.41201q0 0.82403 0.82402 0.82403h8.2403q2.4721 0 2.4721 2.8841v5.3562q0 2.4721-2.4721 2.4721h-14.832l2.4721-4.9442h8.2403q0.82402 0 0.82402-0.82403v-0.41201q0-0.82402-0.82402-0.82402h-8.2403q-2.4721 0-2.4721-2.4721z"/>
		</g>
		<g fill="#fff" aria-label="Favorites">
			<path d="m22.272 38.207h18.129l-2.4721 4.9442h-9.8883v4.9442h9.0643v3.7081h-9.0643v9.8883h-5.7682z"/>
			<path d="m51.529 54.275h-4.9442q-0.82403 0-0.82403 0.82402v0.82403q0 0.82403 0.82403 0.82403h4.9442zm5.7682 7.4162h-14.832q-2.4721 0-2.4721-2.4721v-6.1802q0-2.4721 2.4721-2.4721h9.0643v-0.82403q0-0.82402-0.82403-0.82402h-9.0643l2.4721-4.9442h10.712q2.4721 0 2.4721 2.4721z"/>
			<path d="m65.571 61.692-5.7682-17.717h5.7682l3.2961 10.119 3.2961-10.119h5.7682l-5.7682 17.717z"/>
			<path d="m86.171 55.924q0 0.82403 0.82402 0.82403h4.1201q0.82402 0 0.82402-0.82403v-6.1802q-0.01648-0.80754-0.82402-0.82402h-4.1201q-0.82402 0.01648-0.82402 0.82402zm11.536 3.2961q0 2.4721-2.4721 2.4721h-12.36q-2.4721 0-2.4721-2.4721v-12.772q0-2.4556 2.4721-2.4721h12.36q2.4721 0.01648 2.4721 2.4721z"/>
			<path d="m118.34 43.975-2.4721 4.9442h-8.2402q-0.82403 0-0.82403 0.82402v11.948h-5.7682v-15.244q0-2.4721 2.4721-2.4721z"/>
			<path d="m120.81 43.975h5.7682v17.717h-5.7682zm5.7682-1.6481h-5.7682v-4.1201h5.7682z"/>
			<path d="m139.8 61.692h-5.7682v-13.184h-4.1201v-4.5321h4.1201l-0.0165-3.7081h5.7847v3.7081h4.1201v4.5321h-4.1201z"/>
			<path d="m153.02 49.743v1.6481h4.9442q0.82403 0 0.82403-0.82402v-0.82403q0-0.82402-0.82403-0.82402h-4.1201q-0.82402 0.01648-0.82402 0.82402zm-5.7682-3.2961q0-2.4721 2.4721-2.4721h12.36q2.4721 0 2.4721 2.8841v6.1802q0 2.0601-2.4721 2.0601h-9.0643v0.82403q0 0.82403 0.82402 0.82403h9.0643l-2.4721 4.9442h-10.712q-2.4721 0-2.4721-2.4721z"/>
			<path d="m167.88 46.447q0-2.4721 2.4721-2.4721h14.832l-2.4721 4.9442h-8.2403q-0.82402 0-0.82402 0.82402v0.41201q0 0.82403 0.82402 0.82403h8.2403q2.4721 0 2.4721 2.8841v5.3562q0 2.4721-2.4721 2.4721h-14.832l2.4721-4.9442h8.2403q0.82402 0 0.82402-0.82403v-0.41201q0-0.82402-0.82402-0.82402h-8.2403q-2.4721 0-2.4721-2.4721z"/>
		</g>
	</g>
</svg>
