<svg width="566.93px" height="66.041px" enable-background="new 0 0 566.929 66.041" version="1.1" viewBox="0 0 566.93 66.041" xmlns="http://www.w3.org/2000/svg">
	<path d="m296.04 8.236 4.352-6.971h-66.25c-5.084 0.076-9.82 1.502-14.135 4.274l-5.084 3.736c-2.234-2.696-4.43-4.584-6.588-5.854-2.695-1.502-5.699-2.156-9.127-2.156h-112.2l-3.66 11.169-1.808-11.168h-24.538l-0.885 2.079-2.311-0.809c-12.943-4.43-25.383-3.081-37.131 4.198-5.971 3.813-10.477 8.59-13.25 14.443-2.85 5.855-3.814 12.364-3.158 19.76 0.461 4.43 2.002 8.551 4.699 12.287 2.695 3.736 6.123 6.74 10.398 8.897 6.201 3.235 12.941 4.198 19.99 3.081h21.84l5.469-12.133 2.004 12.133 131.27-0.153c2.852 0 5.701-0.694 8.59-1.964 2.85-1.271 5.314-3.082 7.549-5.316 3.66 3.891 8.012 6.51 13.096 7.55 6.895 1.656 13.559 0.462 19.836-3.505l0.811-0.617-0.617 3.968h26.73l0.656-4.622c1.578-0.23 2.85-1.039 3.967-2.389h72.682c11.17 0 19.373-2.85 24.381-8.589l5.393 8.589h77.768v-10.937l13.98 10.938h96.102v-49.842h-104.11v10.784l-13.789-10.784h-55.387l-6.818 12.942-7.549-13.02h-83.159v1e-3z" fill="#1F00CC"/>
	<g fill="#fff">
		<path d="m313.03 16.557h-8.318l-19.605 33.009h23.342v-7.318h-9.514l9.514-17.063 13.789 24.42h10.631v-0.076h16.6c14.367 0 21.57-5.547 21.57-16.523 0-1.888-0.23-3.66-0.732-5.316l13.25 21.84h6.355l19.066-32.932h-10.092l-11.903 21.566-12.557-21.568h-10.861l3.004 4.93c-3.504-3.313-8.551-4.93-15.137-4.93h-21.84v27.384l-16.562-27.423zm25.961 7.471h12.52c6.508 0 9.82 2.851 9.82 8.551 0 3.429-1.039 5.932-3.004 7.241-1.887 1.348-5.469 2.003-10.477 2.003h-8.82v-17.795h-0.039z"/>
		<polygon points="423.03 16.557 414.68 16.557 395.15 49.565 405.01 49.565 405.01 49.488 418.49 49.488 418.49 42.131 409.05 42.131 418.41 25.146 432.2 49.565 442.95 49.565 442.95 49.488 448.42 49.488 448.42 29.575 473.34 49.488 479.81 49.488 479.81 16.557 471.18 16.557 471.18 36.238 446.03 16.557 439.6 16.557 439.6 43.941"/>
		<path d="m484.74 18.404c-1.348 1.195-2.041 3.352-2.041 6.434v16.33c0 3.159 0.693 5.316 2.002 6.51 1.271 1.195 3.582 1.811 6.973 1.811h19.373c3.352 0 5.777-0.616 7.049-1.811 1.271-1.193 2.004-3.351 2.004-6.51v-4.583l-9.514-0.154v5.085h-18.412v-17.295h18.412v4.507h9.514v-3.89c0-3.236-0.732-5.393-2.004-6.434-1.271-1.271-3.504-1.887-7.049-1.887h-19.373c-3.352 0.04-5.663 0.618-6.934 1.887z"/>
		<polygon points="532.77 28.766 532.77 24.028 558.46 24.028 558.46 16.557 523.26 16.557 523.26 49.488 558.88 49.488 558.88 41.862 532.77 41.862 532.77 36.008 547.83 36.008 547.83 28.766"/>
		<path d="m50.841 10.354c-10.322-3.735-20.299-2.541-29.851 3.352-9.436 5.777-13.557 14.598-12.44 26.114 0.307 3.352 1.578 6.433 3.736 9.129 2.156 2.696 4.93 4.621 8.242 6.123 3.35 1.503 6.895 2.08 10.631 1.888 4.121-0.231 7.857-1.425 11.516-3.429l0.385-0.23-1.424 3.158h10.014l6.434-13.981h11.092l2.465 13.981h16.41l8.396-26.191 5.393 26.191h6.508l12.557-29.041 1.271 29.041h9.592l-1.965-46.914h-11.673l-10.938 25.652-4.699-25.652h-9.592l-12.362 37.939-6.356-37.939h-11.824l-18.104 40.944 2.619-17.141h-17.873l-1.348 8.821h7.473l-0.732 4.698-7.857 0.54c-3.158-0.809-5.393-2.465-6.895-5.085-1.271-2.465-1.887-5.007-1.578-7.856 0.385-3.968 2.311-7.55 5.969-10.785 3.313-2.928 7.551-4.584 12.635-5.238 4.854-0.732 9.129-0.231 12.711 1.348l1.462-9.437zm16.91 22.957h-5.931l4.121-9.051 1.81 9.051z"/>
		<polygon points="166.78 9.508 140.08 9.508 132.58 56.46 159.46 56.46 161.19 46.484 144.25 46.484 145.59 38.087 160.27 38.087 161.85 27.996 147.02 27.996 148.29 19.6 165.2 19.6"/>
		<polygon points="284.95 9.508 273.74 9.508 264.15 24.875 258.18 9.508 247.09 9.508 258.56 34.273 254.94 56.46 264.69 56.46 267.62 36.894"/>
		<path d="m237.88 9.97c-5.469-1.271-10.477 0-15.33 3.736-4.852 3.582-8.012 8.743-9.668 15.253-1.424 6.432-0.73 12.518 1.889 17.871 2.773 5.547 6.74 8.898 12.209 10.092 5.393 1.271 10.4 0 15.254-3.659 4.854-3.736 8.088-8.897 9.59-15.407 1.502-6.432 0.811-12.44-1.887-17.871-2.697-5.47-6.74-8.821-12.057-10.015zm-0.808 9.359c2.619 1.04 4.275 3.429 5.162 6.972 0.885 3.582 0.693 7.318-0.617 11.285-1.271 3.891-3.35 6.818-6.047 8.667-2.773 2.003-5.393 2.388-7.857 1.271-2.619-1.04-4.352-3.429-5.238-6.972-0.963-3.659-0.617-7.396 0.654-11.285 1.271-3.813 3.352-6.818 6.047-8.821 2.657-1.887 5.355-2.311 7.896-1.117z"/>
		<path d="m205.02 11.626c-1.887-1.194-3.736-1.81-5.545-1.81h-17.949l-7.396 46.644h21.57c2.311 0 4.699-0.731 7.203-2.233 2.465-1.503 4.352-3.352 5.854-5.624 1.58-2.618 2.156-5.161 1.889-7.856-0.309-2.928-1.889-5.701-4.623-8.32 5.469-5.623 6.74-10.939 3.891-16.023-1.234-1.889-2.775-3.508-4.894-4.778zm-16.678 16.755 1.502-8.666h6.279c1.58 0 2.773 0.461 3.582 1.348 0.693 0.809 0.963 1.811 0.809 3.004-0.154 1.195-0.73 2.157-1.656 3.005-1.039 0.886-2.311 1.349-3.813 1.349h-6.703l10.861 11.092c0.887 0.887 1.35 2.042 1.271 3.313-0.076 1.271-0.693 2.312-1.811 3.236-1.115 0.885-2.695 1.425-4.852 1.425h-8.475l1.502-9.437h8.088c1.811 0 3.236 0.539 4.275 1.502l-10.859-11.171z"/>
		<path d="m276.44 52.262c0-1.349-0.539-2.389-1.35-3.275-0.885-0.885-2.002-1.424-3.311-1.424-1.271 0-2.389 0.539-3.275 1.424-0.885 0.887-1.348 1.965-1.348 3.275 0 1.271 0.463 2.311 1.348 3.234 0.887 0.887 2.004 1.426 3.275 1.426 1.27 0 2.387-0.539 3.311-1.426 0.811-0.924 1.35-1.963 1.35-3.234zm-1.889-2.774c0.693 0.693 1.117 1.656 1.117 2.773 0 1.04-0.461 1.965-1.117 2.773-0.654 0.654-1.656 1.04-2.771 1.04-1.117 0-2.08-0.386-2.773-1.04-0.811-0.809-1.195-1.732-1.195-2.773 0-1.117 0.387-2.08 1.195-2.773 0.654-0.809 1.656-1.194 2.773-1.194 1.154 0 2.117 0.347 2.771 1.194z"/>
		<path d="m273.43 49.873-1.271-0.308h-2.234v5.238h0.732v-2.388h1.039l1.426 2.388h0.809l-1.58-2.388c1.041 0 1.656-0.462 1.656-1.502 0.038-0.462-0.116-0.886-0.577-1.04zm-0.154 1.041c0 0.616-0.617 0.885-1.734 0.885h-0.885v-1.656h1.424c0.847 0 1.195 0.308 1.195 0.771z"/>
	</g>
</svg>
