<svg width="171.86mm" height="30.84mm" version="1.1" viewBox="0 0 171.86 30.84" xmlns="http://www.w3.org/2000/svg">
	<g transform="translate(-16.211 -35.661)">
		<g stroke="#000" stroke-width="4" aria-label="Last Played">
			<path d="m19.363 38.813h4.7056v15.125h10.083l-2.0167 4.0333h-12.772z"/>
			<path d="m46.252 51.922h-4.0333q-0.67222 0-0.67222 0.67222v0.67222q0 0.67222 0.67222 0.67222h4.0333zm4.7056 6.05h-12.1q-2.0167 0-2.0167-2.0167v-5.0417q0-2.0167 2.0167-2.0167h7.3944v-0.67222q0-0.67222-0.67222-0.67222h-7.3944l2.0167-4.0333h8.7389q2.0167 0 2.0167 2.0167z"/>
			<path d="m53.674 45.535q0-2.0167 2.0167-2.0167h12.1l-2.0167 4.0333h-6.7222q-0.67222 0-0.67222 0.67222v0.33611q0 0.67222 0.67222 0.67222h6.7222q2.0167 0 2.0167 2.3528v4.3694q0 2.0167-2.0167 2.0167h-12.1l2.0167-4.0333h6.7222q0.67222 0 0.67222-0.67222v-0.33611q0-0.67222-0.67222-0.67222h-6.7222q-2.0167 0-2.0167-2.0167z"/>
			<path d="m78.573 57.972h-4.7056v-10.756h-3.3611v-3.6972h3.3611l-0.01345-3.025h4.719v3.025h3.3611v3.6972h-3.3611z"/>
			<path d="m100.11 42.847v4.0333h4.7056q0.67222 0 0.67222-0.67222v-2.6889q0-0.67222-0.67222-0.67222zm8.0667-4.0333q2.0167 0 2.0167 2.0167v7.0583q0 2.0167-1.6806 2.0167h-8.4028v8.0667h-4.7056v-19.158z"/>
			<path d="m112.88 38.813h4.7056v19.158h-4.7056z"/>
			<path d="m129.72 51.922h-4.0333q-0.67222 0-0.67222 0.67222v0.67222q0 0.67222 0.67222 0.67222h4.0333zm4.7056 6.05h-12.1q-2.0167 0-2.0167-2.0167v-5.0417q0-2.0167 2.0167-2.0167h7.3944v-0.67222q0-0.67222-0.67223-0.67222h-7.3944l2.0167-4.0333h8.7389q2.0167 0 2.0167 2.0167z"/>
			<path d="m146.55 43.519h4.7056v17.814q0 2.0032-2.0167 2.0167h-10.756l2.0167-4.0333h5.3778q0.67222 0 0.67222-0.67222l0.0135-0.67222h-7.4079q-2.0032 0-2.0167-2.0167v-12.436h4.7056v9.7472q0.0134 0.67222 0.67222 0.67222h4.0333z"/>
			<path d="m158.67 48.224v1.3444h4.0333q0.67222 0 0.67222-0.67222v-0.67222q0-0.67222-0.67222-0.67222h-3.3611q-0.67223 0.01344-0.67223 0.67222zm-4.7056-2.6889q0-2.0167 2.0167-2.0167h10.083q2.0167 0 2.0167 2.3528v5.0417q0 1.6806-2.0167 1.6806h-7.3944v0.67222q0 0.67222 0.67223 0.67222h7.3944l-2.0167 4.0333h-8.7389q-2.0167 0-2.0167-2.0167z"/>
			<path d="m176.18 53.938h4.0333v-6.3861h-4.0333q-0.65878 0-0.67222 0.67222v5.0417q0 0.67222 0.67222 0.67222zm-3.3611 4.0333q-2.0167 0-2.0167-2.0167v-10.419q0.0134-2.0167 2.0167-2.0167h7.3944v-4.7056h4.7056v19.158z"/>
		</g>
		<g fill="#fff" aria-label="Last Played">
			<path d="m19.363 38.813h4.7056v15.125h10.083l-2.0167 4.0333h-12.772z"/>
			<path d="m46.252 51.922h-4.0333q-0.67222 0-0.67222 0.67222v0.67222q0 0.67222 0.67222 0.67222h4.0333zm4.7056 6.05h-12.1q-2.0167 0-2.0167-2.0167v-5.0417q0-2.0167 2.0167-2.0167h7.3944v-0.67222q0-0.67222-0.67222-0.67222h-7.3944l2.0167-4.0333h8.7389q2.0167 0 2.0167 2.0167z"/>
			<path d="m53.674 45.535q0-2.0167 2.0167-2.0167h12.1l-2.0167 4.0333h-6.7222q-0.67222 0-0.67222 0.67222v0.33611q0 0.67222 0.67222 0.67222h6.7222q2.0167 0 2.0167 2.3528v4.3694q0 2.0167-2.0167 2.0167h-12.1l2.0167-4.0333h6.7222q0.67222 0 0.67222-0.67222v-0.33611q0-0.67222-0.67222-0.67222h-6.7222q-2.0167 0-2.0167-2.0167z"/>
			<path d="m78.573 57.972h-4.7056v-10.756h-3.3611v-3.6972h3.3611l-0.01345-3.025h4.719v3.025h3.3611v3.6972h-3.3611z"/>
			<path d="m100.11 42.847v4.0333h4.7056q0.67222 0 0.67222-0.67222v-2.6889q0-0.67222-0.67222-0.67222zm8.0667-4.0333q2.0167 0 2.0167 2.0167v7.0583q0 2.0167-1.6806 2.0167h-8.4028v8.0667h-4.7056v-19.158z"/>
			<path d="m112.88 38.813h4.7056v19.158h-4.7056z"/>
			<path d="m129.72 51.922h-4.0333q-0.67222 0-0.67222 0.67222v0.67222q0 0.67222 0.67222 0.67222h4.0333zm4.7056 6.05h-12.1q-2.0167 0-2.0167-2.0167v-5.0417q0-2.0167 2.0167-2.0167h7.3944v-0.67222q0-0.67222-0.67223-0.67222h-7.3944l2.0167-4.0333h8.7389q2.0167 0 2.0167 2.0167z"/>
			<path d="m146.55 43.519h4.7056v17.814q0 2.0032-2.0167 2.0167h-10.756l2.0167-4.0333h5.3778q0.67222 0 0.67222-0.67222l0.0135-0.67222h-7.4079q-2.0032 0-2.0167-2.0167v-12.436h4.7056v9.7472q0.0134 0.67222 0.67222 0.67222h4.0333z"/>
			<path d="m158.67 48.224v1.3444h4.0333q0.67222 0 0.67222-0.67222v-0.67222q0-0.67222-0.67222-0.67222h-3.3611q-0.67223 0.01344-0.67223 0.67222zm-4.7056-2.6889q0-2.0167 2.0167-2.0167h10.083q2.0167 0 2.0167 2.3528v5.0417q0 1.6806-2.0167 1.6806h-7.3944v0.67222q0 0.67222 0.67223 0.67222h7.3944l-2.0167 4.0333h-8.7389q-2.0167 0-2.0167-2.0167z"/>
			<path d="m176.18 53.938h4.0333v-6.3861h-4.0333q-0.65878 0-0.67222 0.67222v5.0417q0 0.67222 0.67222 0.67222zm-3.3611 4.0333q-2.0167 0-2.0167-2.0167v-10.419q0.0134-2.0167 2.0167-2.0167h7.3944v-4.7056h4.7056v19.158z"/>
		</g>
	</g>
</svg>
