<svg width="341.16px" height="127.23px" enable-background="new -0.501 0 341.155 127.229" version="1.1" viewBox="-.501 0 341.16 127.23" xmlns="http://www.w3.org/2000/svg">
	<g fill="#f00">
		<path d="m277.72 70.452h-215.15c-19.423 0-35.228-15.803-35.228-35.227s15.806-35.225 35.228-35.225h215.15c19.426 0 35.229 15.802 35.229 35.226-1e-3 19.423-15.802 35.226-35.227 35.226zm-215.15-62.119c-14.829 0-26.895 12.064-26.895 26.895 0 14.828 12.065 26.894 26.895 26.894h215.15c14.827 0 26.896-12.065 26.896-26.894 0-14.83-12.067-26.895-26.896-26.895h-215.15z"/>
		<path d="M90.208,51.562V19.047h-9.779v22.735L66.006,19.047H55.494v32.515h9.779V28.093l15.155,23.469H90.208z"/>
		<path d="m106.1 51.562v-22.002h-9.778v22.002h9.778z"/>
		<path d="m106.1 24.914v-5.867h-9.778v5.867h9.778z"/>
		<path d="m140.32 51.562v-15.159c0-3.178-6.112-7.578-9.289-7.578h-2.935c-2.199 0-4.645 1.956-6.845 2.934v-2.199h-9.779v22.002h9.779v-15.159c0-1.467 3.422-3.178 4.89-3.178 1.467 0 4.155 1.711 4.155 3.178v15.158l10.024 1e-3z"/>
		<path id="_x33_162_1_" d="m222.14 52.319v-15.157c0-3.179-6.109-7.578-9.293-7.578h-2.932c-2.201 0-4.646 1.956-6.848 2.933v-2.199h-9.777v22.002h9.777v-15.158c0-1.466 3.424-3.179 4.891-3.179s4.154 1.713 4.154 3.179v15.157h10.028z"/>
		<path d="m156.22 51.562v-22.002h5.134v-2.934h-5.134v-4.645h-10.021v4.645h-5.135v2.934h5.135v22.002h10.021z"/>
		<path d="m175.04 28.826c-7.822 0-14.422 5.378-14.422 11.979 0 6.846 6.6 12.223 14.422 12.223 6.846 0 12.469-3.911 13.936-9.045h-10.021v2.934c0 2.445-1.709 3.18-3.91 3.18-2.2 0-3.668-0.734-3.668-3.18v-6.111h18.093c-4e-3 -6.601-6.36-11.98-14.43-11.98zm0 2.2c2.201 0 3.912 1.467 3.912 3.912v2.199h-7.578v-2.199c0-2.445 1.467-3.912 3.666-3.912z"/>
		<path d="m271.36 28.826c-8.069 0-14.426 5.378-14.426 11.979 0 6.846 6.354 12.223 14.426 12.223 7.818 0 14.422-5.377 14.422-12.223-4e-3 -6.6-6.603-11.979-14.422-11.979zm0 2.2c2.195 0 3.666 1.467 3.666 3.912v11.978c0 2.444-1.471 3.179-3.666 3.179-2.444 0-3.914-0.734-3.914-3.179v-11.978c-2e-3 -2.445 1.467-3.912 3.914-3.912z"/>
		<path d="m243.25 19.047v11.979s-2.936-2.2-6.848-2.2c-6.111 0-11.244 5.378-11.244 11.246 0 6.112 5.135 12.224 11.244 12.224 3.912 0 6.848-1.467 6.848-1.467v0.732h9.779v-32.514h-9.779zm-3.668 13.446c2.199 0 3.668 1.712 3.668 3.912v9.045c0 2.201-1.469 2.934-3.668 2.934-2.443 0-3.912-0.732-3.912-2.934v-9.045c0-2.2 1.469-3.912 3.912-3.912z"/>
	</g>
	<path d="m287.01 29.216c-2.774 0-5.036-2.258-5.036-5.035 0-2.959 2.213-5.28 5.036-5.28 2.729 0 5.036 2.417 5.036 5.28 0 2.681-2.35 5.035-5.036 5.035zm0-9.533c-2.427 0-4.253 1.934-4.253 4.5 0 2.344 1.908 4.254 4.253 4.254 2.229 0 4.254-2.028 4.254-4.254 0-2.399-1.984-4.5-4.254-4.5zm0.884 6.647-0.863-1.515h-1.096v1.321h-0.779v-4.546h2.104c0.979 0 1.488 0.813 1.488 1.613 0 0.615-0.303 1.238-0.885 1.492l0.711 1.248-0.68 0.387zm-1.959-2.294h1.321c0.22 0 0.396-0.079 0.521-0.235 0.119-0.149 0.188-0.368 0.188-0.597 0-0.311-0.151-0.832-0.709-0.832h-1.321v1.664z" fill="#f00"/>
	<path id="_x32_399_1_" d="m51.827 99.231v-14.18c0-2.688-2.689-5.379-5.378-5.379h-20.535v19.56h6.357v-13.2c0-0.979 0.732-1.957 1.711-1.957h9.777c0.979 0 1.957 0.979 1.957 1.957v13.199h6.111z" fill="#fff"/>
	<path id="_x32_399_2_" d="m221.47 99.231v-14.18c0-2.688-2.688-5.379-5.376-5.379h-20.535v19.56h6.354v-13.2c0-0.979 0.736-1.957 1.713-1.957h9.779c0.979 0 1.953 0.979 1.953 1.957v13.199h6.112z" fill="#fff"/>
	<path id="_x32_399_3_" d="m314.33 99.231v-14.18c0-2.688-2.688-5.379-5.379-5.379h-20.535v19.56h6.354v-13.2c0-0.979 0.732-1.957 1.715-1.957h9.775c0.979 0 1.955 0.979 1.955 1.957v13.199h6.115z" fill="#fff"/>
	<path id="_x33_177_1_" d="m258.89 99.231v-14.18c0-2.688-2.688-5.379-5.379-5.379h-27.625v19.56h6.357v-13.2c0-0.979 0.73-1.957 1.709-1.957h3.668c0.734 0 1.712 0.979 1.712 1.957v13.199h6.358v-13.199c0-0.979 0.73-1.957 1.709-1.957h3.668c0.732 0 1.711 0.979 1.711 1.957v13.199h6.112z" fill="#fff"/>
	<path id="_x33_181_1_" d="m21.514 99.231h-16.135c-2.688 0-5.379-1.71-5.379-4.398v-15.4h21.513v4.646h-14.424c-0.732 0-1.711 0.733-1.711 1.712s0.979 1.712 1.711 1.712h13.446v3.911h-13.446c-0.732 0-1.711 0.979-1.711 1.712 0 0.979 0.979 1.955 1.711 1.955h14.424l1e-3 4.15z" fill="#fff"/>
	<path id="_x33_181_2_" d="m100.98 99.478h-16.136c-2.688 0-5.379-1.711-5.379-4.397v-15.404h21.515v4.645h-14.426c-0.731 0-1.71 0.734-1.71 1.715s0.979 1.711 1.71 1.711h13.446v3.91h-13.446c-0.731 0-1.71 0.979-1.71 1.714 0 0.979 0.979 1.954 1.71 1.954h14.426v4.152z" fill="#fff"/>
	<path id="_x33_181_3_" d="m284.91 99.231h-16.137c-2.688 0-5.381-1.711-5.381-4.398v-15.4h21.516v4.646h-14.424c-0.732 0-1.715 0.733-1.715 1.712s0.979 1.712 1.715 1.712h13.442v3.911h-13.442c-0.732 0-1.715 0.979-1.715 1.712 0 0.979 0.979 1.955 1.715 1.955h14.424v4.153h2e-3v-3e-3z" fill="#fff"/>
	<path id="_x32_391_1_" d="m54.517 79.675v4.4h6.355c1.712 0 1.712 0 1.712 1.957v13.199h6.111v-13.199c0-1.957 0-1.957 1.956-1.957h6.111v-4.4h-22.245z" fill="#fff"/>
	<path id="_x32_391_2_" d="m132.2 79.675v4.4h6.355c1.71 0 1.71 0 1.71 1.957v13.199h6.112v-13.199c0-1.957 0-1.957 1.957-1.957h6.112v-4.4h-22.246z" fill="#fff"/>
	<path id="_x32_391_3_" d="m317.91 79.675v4.4h6.354c1.713 0 1.713 0 1.713 1.957v13.199h6.11v-13.199c0-1.957 0-1.957 1.955-1.957h6.111v-4.4h-22.243z" fill="#fff"/>
	<path d="m105.37 79.675v19.559h6.356v-3.42c0-0.979 0.733-1.959 1.711-1.959h8.068c0.979 0 1.711 0.979 1.711 1.959v3.42h5.379v-5.379c0-0.73-0.732-1.709-0.732-2.688 0-0.73 1.711-2.441 1.711-4.396v-1.713c0-1.714-2.689-5.381-4.4-5.381l-19.804-2e-3zm8.067 4.4h8.068c0.979 0 1.71 0.979 1.71 1.957v1.71c0 0.979-0.732 1.713-1.71 1.713h-8.068c-0.978 0-1.711-0.733-1.711-1.713v-1.71c1e-3 -0.976 0.733-1.957 1.711-1.957z" fill="#fff"/>
	<path d="m161.59 79.675c-1.712 0-4.399 3.667-4.399 5.381v14.178h6.354v-5.379h11.489v5.379h6.355v-14.178c0-1.714-2.688-5.381-4.646-5.381h-15.153zm3.667 4.4h8.066c0.73 0 1.711 0.979 1.711 1.957v3.422h-11.489v-3.422c0-0.976 0.734-1.957 1.712-1.957z" fill="#fff"/>
	<path d="m191.91 99.231v-19.558h-6.11v19.559h6.11v-1e-3z" fill="#fff"/>
	<path id="_x33_177_2_" d="m250.86 126.02v-14.18c0-2.688-2.689-5.379-5.381-5.379h-27.623v19.559h6.354v-13.201c0-0.979 0.732-1.957 1.71-1.957h3.667c0.734 0 1.714 0.979 1.714 1.957v13.199h6.354v-13.199c0-0.979 0.73-1.957 1.709-1.957h3.668c0.732 0 1.715 0.979 1.715 1.957v13.199h6.111l2e-3 2e-3z" fill="#fff"/>
	<path id="_x33_181_4_" d="m213.48 126.02h-16.137c-2.688 0-5.377-1.713-5.377-4.397v-15.404h21.512v4.646h-14.422c-0.732 0-1.713 0.732-1.713 1.711s0.979 1.712 1.713 1.712h13.443v3.911h-13.443c-0.732 0-1.713 0.979-1.713 1.713 0 0.979 0.979 1.954 1.713 1.954h14.422l2e-3 4.154z" fill="#fff"/>
	<path id="_x32_391_4_" d="m167.02 106.46v4.398h6.355c1.711 0 1.711 0 1.711 1.957v13.199h6.111v-13.199c0-1.957 0-1.957 1.959-1.957h6.109v-4.398h-22.245z" fill="#fff"/>
	<path id="_x33_187_1_" d="m94.611 106.56c-1.712 0-5.379 2.689-5.379 4.397v2.69c0 1.713 3.667 4.4 5.379 4.4h10.756c0.978 0 1.956 0.979 1.956 1.711 0 0.978-0.979 1.954-1.956 1.954h-16.135v4.399h18.09c1.712 0 5.134-2.688 5.134-4.399v-2.688c0-1.957-3.422-4.646-5.134-4.646h-10.756c-0.979 0-1.955-0.733-1.955-1.713 0-0.978 0.977-1.713 1.955-1.713h15.89v-4.397h-17.845v5e-3z" fill="#fff"/>
	<path id="_x33_187_2_" d="m146.4 106.56c-1.713 0-5.38 2.689-5.38 4.397v2.69c0 1.713 3.667 4.4 5.38 4.4h10.756c0.978 0 1.956 0.979 1.956 1.711 0 0.978-0.979 1.954-1.956 1.954h-16.136v4.399h18.091c1.712 0 5.134-2.688 5.134-4.399v-2.688c0-1.957-3.422-4.646-5.134-4.646h-10.757c-0.978 0-1.955-0.733-1.955-1.713 0-0.978 0.978-1.713 1.955-1.713h15.891v-4.397h-17.845v5e-3z" fill="#fff"/>
	<path d="m114.41 106.56v8.804c0 1.71 2.688 4.399 4.4 4.399h4.398v6.354h6.357v-6.354h4.4c1.71 0 4.4-2.689 4.4-4.399v-8.804h-6.112v7.092c0 0.732-0.978 1.712-1.956 1.712h-7.822c-0.979 0-1.956-0.979-1.956-1.712v-7.092h-6.109z" fill="#fff"/>
</svg>
