<svg width="568.93" height="100.44" enable-background="new 0 0 566.929 98.437" version="1.1" viewBox="0 0 568.93 100.44" xmlns="http://www.w3.org/2000/svg">
	<g transform="translate(1 1)" fill="#fff">
		<g>
			<path d="m59.308 59.926c2e-3 8.188-13.273 14.827-29.652 14.827-16.377 2e-3 -29.655-6.636-29.656-14.825v-2e-3c-1e-3 -8.189 13.274-14.828 29.652-14.829 16.377 0 29.655 6.639 29.656 14.826z" fill="#2dd123"/>
			<path d="m110.38 83.357c2e-3 8.188-13.273 14.828-29.651 14.828-16.377 0-29.655-6.637-29.657-14.825v-3e-3c-2e-3 -8.188 13.273-14.828 29.651-14.829 16.379 0 29.655 6.637 29.657 14.826z" fill="#f7f91c"/>
			<path d="m60.398 0.252c-14.947 0-27.095 11.946-27.449 26.822 0.621-0.043 1.239-0.069 1.871-0.069 15.169 0 27.466 12.309 27.466 27.492 0 0.227-0.011 0.446-0.017 0.671 14.3-0.96 25.595-12.867 25.595-27.424 0-15.183-12.297-27.492-27.466-27.492z" fill="#0b10ff"/>
			<path d="m112.39 24.334c-15.165 0-27.458 12.301-27.458 27.474 0 0.338 5e-3 0.68 0.017 1.013 0.367-0.014 0.728-0.032 1.098-0.032 14.824 0 26.905 11.759 27.441 26.46 14.659-0.572 26.359-12.631 26.359-27.44 1e-3 -15.174-12.292-27.475-27.457-27.475z" fill="#fa0e18"/>
		</g>
		<path d="m186.89 0c-3.758 0-7.412 3.09-8.083 6.918v0.206l-0.068 0.068v0.206l-0.069 0.137v0.138l-0.069 0.137v0.206l-0.068 0.137v0.206l-0.069 0.205-0.069 0.206-0.068 0.41-0.137 0.479-0.067 0.479-0.138 0.479-0.069 0.547-0.138 0.548-0.136 0.616-0.138 0.548-0.205 1.165-0.138 0.617-0.137 0.547-0.067 0.548-0.138 0.547-0.136 0.548-0.069 0.548-0.069 0.479-0.138 0.411-0.069 0.479v0.206l-0.067 0.137v0.343l-0.068 0.206v0.274l-0.069 0.137v0.137c-0.07 1.675 0.163 3.96 0.685 4.385 0.665 3.688 12.958 20.758 12.604 23.358-0.332 2.606-1.781 10.276-1.781 10.276-0.446 2.585-2.21 4.657-4.794 4.657-2.586 0-4.351-2.065-3.905-4.657l2.329-12.741h-9.179l-3.083 17.674c-0.628 3.588 1.801 6.438 5.411 6.438h13.085c3.624 0 7.076-2.85 7.739-6.438 0 0 3.372-16.508 3.356-17.674-0.013-1.174-0.341-1.302-0.341-1.302 0-1.342-10.939-19.4-12.056-20.072-0.481-0.281-0.877-2.069-0.892-3.15-0.021-1.074 1.439-8.289 1.439-8.289 0.444-2.585 2.894-4.658 5.48-4.658 2.585 0 3.664 2.073 3.219 4.658l-1.986 11.439h9.247l3.22-17.194c0.729-3.825-1.721-6.915-5.479-6.915zm25.207 0-10.959 63.16c-0.628 3.588 1.802 6.438 5.412 6.438h13.084c3.624 0 7.138-2.85 7.809-6.438l11.712-63.16h-8.219l-11.167 61.377c-0.163 0.892-1.028 1.645-1.917 1.645h-6.509c-0.911 0-1.519-0.747-1.371-1.645l10.894-61.377zm31.511 0-13.221 69.597h8.768l6.029-31.51h11.166c3.632 0 7.074-2.871 7.739-6.438l4.795-24.73c0.724-3.836-1.72-6.919-5.477-6.919h-11.03zm31.306 0-13.699 69.597h19.727l1.37-8.631h-9.727l3.974-23.496h9.726l1.37-7.261h-9.725l4.315-21.578h9.728l1.368-8.631zm23.564 0-13.151 69.597h8.768l5.96-31.51h6.235c0.818 0.763 0.915 2.171 1.024 2.877 0.164 1.025 0.334 2.333 0.208 3.357-0.114 1.017-4.797 25.276-4.797 25.276h8.769s4.933-26.428 4.933-26.852c0.014-0.431 0-1.785-0.478-2.534-0.322-0.48-0.873-1.583-1.509-1.986-1.223-0.785-2.603-1.303-2.603-1.303h-0.62c2.512-0.989 7.24-2.618 7.744-5.274l4.794-24.73c0.728-3.835-1.721-6.918-5.479-6.918zm46.924 0-13.222 69.597h10.071l8.15-40.346 3.221 40.346h8.769l13.22-69.597h-10.069l-6.851 36.375-4.521-36.375zm34.798 0-13.22 69.597h8.769l13.218-69.597zm13.356 0-13.219 69.597h10.139l8.151-40.346 3.22 40.346h8.769l13.221-69.597h-10.139l-6.781 36.375-4.522-36.375zm33.979 0-1.646 8.632h5.481l-10.824 60.965h10.003l11.028-60.965h5.274l1.371-8.632zm24.111 0-13.698 69.597h19.726l1.371-8.631h-9.726l4.042-23.496h9.725l1.371-7.261h-9.726l4.245-21.578h9.728l1.37-8.631zm22.264 0-13.22 69.597h10.137l8.153-40.346 3.219 40.346h8.768l13.223-69.597h-10.139l-6.782 36.375-4.523-36.375zm34.869 0-13.223 69.597h20.003c3.633 0 7.137-2.85 7.81-6.438l10.616-56.241c0.721-3.835-1.72-6.918-5.478-6.918zm37.606 0c-3.76 0-7.344 3.09-8.015 6.918l-9.798 56.241c-0.635 3.588 1.74 6.438 5.347 6.438h14.452c3.624 0 7.138-2.85 7.812-6.438l10.615-56.241c0.728-3.828-1.729-6.918-5.479-6.918zm-30.14 8.015h4.042c2.585 0 4.349 2.073 3.903 4.658l-8.631 45.554c-0.451 2.585-2.962 4.727-5.548 4.727h-3.973zm35.277 0h0.275c2.585 0 4.281 2.073 3.834 4.658l-8.217 45.554c-0.448 2.577-2.829 4.727-5.412 4.727-2.587 0-3.666-2.142-3.223-4.727l8.153-45.554 0.067-0.206 0.07-0.206 0.067-0.274 0.068-0.206 0.07-0.274 0.067-0.206 0.07-0.206 0.134-0.205 0.069-0.206 0.138-0.206 0.068-0.205 0.138-0.206 0.138-0.137 0.135-0.205 0.138-0.206 0.205-0.137 0.275-0.275 0.205-0.137 0.206-0.137 0.138-0.137 0.204-0.138 0.206-0.068 0.207-0.137 0.137-0.069 0.273-0.069 0.205-0.068h0.204l0.206-0.069h0.275zm-299.49 0.274h4.248c0.933 0 2.911 2.136 2.741 3.083l-3.632 17.194c-0.169 0.89-1.37 2.945-2.258 2.945h-5.276l-0.069-0.068h-0.274v-0.069h-0.137l-0.07-0.068h-0.068l-0.068-0.069-0.068-0.068h-0.068v-0.069l-0.069-0.068-0.069-0.069v-0.069l-0.068-0.068-0.07-0.069v-0.137l-0.068-0.068v-0.137l-0.07-0.069v-0.068c0-0.114-0.012-0.285 0-0.412l4.111-21.03c0.377-0.309 0.837-0.547 1.302-0.547zm54.595 0h4.249c0.933 0 2.923 2.136 2.738 3.083l-3.632 17.125c-0.159 0.897-2.389 3.014-3.286 3.014h-3.768c-0.777 0-1.314-0.511-1.369-1.231 0-0.114-0.016-0.278 0-0.412l4.042-21.03 0.067-0.069 0.07-0.068 0.134-0.069h0.068l0.137-0.137h0.069l0.068-0.069h0.07l0.136-0.068h0.202v-0.069zm-139.19 67.337v22.811h391v-22.811zm287.43 2.397h3.355c0.811 0 1.395 0.651 1.232 1.507l-0.755 3.838h-1.848l0.409-2.535c0.094-0.573-0.244-1.029-0.823-1.029-0.571 0-1.135 0.454-1.232 1.029l-0.34 1.85c-0.058 0.11 0.114 0.629 0.204 0.686 0.254 0.146 2.671 4.153 2.671 4.451 0.058 0.149 0.09 0.22 0.067 0.275-0.069 0.501-0.753 3.903-0.753 3.903-0.147 0.781-0.907 1.438-1.712 1.438h-2.877c-0.799 0-1.313-0.657-1.165-1.438l0.686-3.903h1.988l-0.479 2.809c-0.092 0.571 0.239 1.095 0.818 1.095 0.554 0 1.144-0.52 1.237-1.095l0.409-2.261c-0.367-0.945-2.791-4.388-2.946-5.207-0.106-0.092-0.152-0.587-0.136-0.959 0.021-0.407 0.547-2.946 0.547-2.946h0.07v-0.203l0.067-0.138v-0.067l0.066-0.07v-0.068l0.069-0.067v-0.068l0.068-0.067 0.07-0.07v-0.067h0.067l0.07-0.068 0.067-0.07 0.068-0.067v-0.07h0.069l0.066-0.067 0.067-0.068h0.07l0.068-0.067h0.069l0.068-0.068h0.205zm15.753 0h2.467l0.342 5.824 3.15-5.824h2.468l-5.07 8.906-1.233 6.507h-2.191l1.097-6.988zm22.401 0h3.354c0.812 0 1.381 0.651 1.233 1.507l-0.754 3.838h-1.85l0.413-2.535c0.091-0.573-0.243-1.029-0.822-1.029-0.574 0-1.144 0.454-1.233 1.029l-0.343 1.85c-0.072 0.11 0.092 0.629 0.205 0.686 0.242 0.146 2.671 4.153 2.671 4.451 0.072 0.149 0.07 0.22 0.07 0.275-0.094 0.501-0.686 3.903-0.686 3.903-0.147 0.781-0.915 1.438-1.714 1.438h-2.944c-0.798 0-1.314-0.657-1.167-1.438l0.686-3.903h1.987l-0.479 2.809c-0.092 0.571 0.264 1.095 0.823 1.095 0.571 0 1.119-0.52 1.232-1.095l0.41-2.261c-0.374-0.945-2.787-4.388-2.945-5.207-0.105-0.092-0.149-0.587-0.136-0.959 0.021-0.407 0.548-2.946 0.548-2.946l0.067-0.068v-0.135l0.068-0.138v-0.067l0.069-0.07v-0.068l0.068-0.067v-0.068l0.069-0.067 0.068-0.07v-0.067h0.07l0.065-0.068 0.068-0.07 0.069-0.067 0.068-0.07 0.067-0.067 0.07-0.068h0.068l0.069-0.067h0.068l0.067-0.068h0.204zm15.96 0h4.591l-0.344 1.851h-1.165l-2.396 13.563h-2.26l2.396-13.563h-1.163zm17.948 0h4.109l-0.344 1.851h-2.124l-0.956 4.864h2.191l-0.344 1.574h-2.124l-0.889 5.206h2.121l-0.271 1.918h-4.385zm16.919 0h2.535l0.409 8.906 3.906-8.836 2.465-0.07-2.601 15.413h-1.918l1.232-8.15-3.426 8.15h-1.371l-0.409-8.358-1.508 8.358h-2.262zm-367.92 0.55h4.042l-0.275 1.916h-2.191l-0.89 4.797h2.124l-0.275 1.644h-2.192l-0.821 5.207h2.123l-0.343 1.917h-4.384zm18.906 0h1.918l1.027 8.083 1.506-8.083h2.262l-2.947 15.48h-1.917l-0.754-8.976-1.78 8.976h-2.262zm20.551 0h4.521l-0.273 1.916h-1.165l-2.466 13.564h-2.19l2.396-13.564h-1.233zm19.934 0h4.11l-0.343 1.916h-2.124l-0.959 4.797h2.124l-0.274 1.644h-2.123l-0.89 5.207h2.123l-0.273 1.917h-4.384zm19.318 0h4.383c0.813 0 1.327 0.719 1.165 1.574l-1.027 5.48c-0.114 0.593-1.157 1.078-1.714 1.302h0.276v0.068h0.274l0.068 0.067h0.206v0.068h0.138v0.07h0.068c0.092 0.165 0.136 0.659 0.136 0.753 0 0.092-1.097 6.097-1.097 6.097h-1.986s1.061-5.394 1.097-5.617c0.022-0.24-0.026-0.529-0.068-0.753-0.016-0.166-0.024-0.45-0.206-0.618h-1.371l-1.301 6.988h-1.987zm19.59 0h4.589l-0.273 1.916h-1.163l-2.467 13.564h-2.192l2.397-13.564h-1.232zm22.811 0h2.604l-0.822 15.48h-2.604l0.342-3.563h-1.574l-1.303 3.563h-2.327zm18.224 0h1.986l-2.947 15.48h-1.918zm17.671 0h1.92l1.026 8.083 1.509-8.083h2.191l-2.877 15.48h-1.986l-0.685-8.976-1.784 8.976h-2.258zm22.675 0h2.535l0.409 8.974 3.908-8.905h2.463l-2.602 15.412h-1.917l1.232-8.152-3.427 8.152h-1.37l-0.409-8.356-1.507 8.356h-2.193zm24.866 0h4.042l-0.276 1.916h-2.191l-0.889 4.797h2.123l-0.275 1.644h-2.191l-0.89 5.207h2.19l-0.342 1.917h-4.315zm19.864 0h1.918l1.028 8.083 1.507-8.083h2.191l-2.875 15.48h-1.918l-0.755-8.976-1.782 8.976h-2.26zm20.346 0h4.589l-0.342 1.916h-1.163l-2.399 13.564h-2.193l2.399-13.564h-1.232zm-164.2 1.847c-0.108 0-0.198 0.064-0.276 0.138l-0.89 4.657v0.07c0 0.149 0.104 0.273 0.274 0.273h0.821c0.204 0 0.717-0.411 0.755-0.617l0.751-3.836c0.036-0.22-0.342-0.686-0.547-0.686h-0.888zm40.551 4.658-1.437 3.905h1.095z"/>
	</g>
</svg>
